<svg viewBox="0 0 52 44" version="1.1" xmlns="http://www.w3.org/2000/svg" xmlns:xlink="http://www.w3.org/1999/xlink">
    <title>Group</title>
    <g id="Page-1" stroke="fff6f5" stroke-width="1" fill-rule="evenodd">
        <g id="logo-copy-3" transform="translate(-5, -5)" fill="#fff6f5" fill-rule="nonzero">
            <g id="Group" transform="translate(5.8035, 5.7824)">
                <path d="M23.8644564,13.1495562 C26.0895521,10.9670707 29.4895817,10.5186256 32.2044564,12.0495562 C34.290527,10.952079 36.8476846,11.3368271 38.5184564,12.9995562 C41.1551911,12.0385303 44.1089852,12.9593902 45.7324564,15.2485562 C47.2807929,15.47546 48.6195551,16.4469313 49.3154564,17.8485562 C50.191077,19.4806588 50.2282891,21.4342927 49.4154564,23.0985562 C50.6240804,24.736843 51.1431354,26.7832694 50.8614564,28.7995562 C50.6143072,30.4764553 49.6256978,31.9531264 48.1694564,32.8205562 C47.9644317,35.1521199 46.4084646,37.1455437 44.1964564,37.9105562 L44.1964564,38.0015562 C44.869867,39.6574523 45.2096991,41.4300165 45.1964564,43.2175562 L43.1964564,43.2175562 C43.2202421,41.6534618 42.913555,40.1019659 42.2964564,38.6645562 L42.1964564,38.4535562 L42.1964564,36.4965562 L42.8804564,36.2695562 C45.0804564,35.5345562 46.1964564,34.1725562 46.1964564,32.2175562 L46.1964564,31.5995562 L46.7524564,31.3225562 C47.9013731,30.7992945 48.7061523,29.7286406 48.8894564,28.4795562 C49.1214563,26.8287307 48.6085959,25.1601029 47.4894564,23.9245562 L46.9094564,23.3445562 L47.3644564,22.6625562 C48.1366679,21.5064012 48.2100706,20.0191307 47.5554564,18.7925562 C47.1237211,17.8692715 46.214711,17.2623656 45.1964564,17.2175562 L44.6644564,17.2175562 L44.3644564,16.7725562 C43.4343948,15.1272366 41.5282136,14.2954485 39.6894564,14.7325562 C40.0269475,15.5173983 40.1995182,16.3632331 40.1964564,17.2175562 L38.1964564,17.2175562 C38.2641095,15.8238689 37.5370841,14.5119696 36.3194564,13.8305562 C35.183451,13.2284574 33.8061215,13.3122244 32.7514564,14.0475562 L32.1964564,14.4175562 L31.6424564,14.0495562 C29.5015502,12.5819612 26.5995088,12.9588217 24.9044564,14.9245562 L24.5264564,15.3035562 L24.0014564,15.1975562 C22.1923009,14.7937911 20.3396669,15.6682343 19.5014564,17.3215562 C18.6925939,18.6524368 18.8553408,20.3568041 19.9014564,21.5105562 L18.4874564,22.9245562 C17.8805734,22.3163287 17.4404551,21.5621354 17.2094564,20.7345562 C16.4545753,21.2202382 15.8981138,21.9597043 15.6404564,22.8195562 C15.3555387,23.7660423 15.3906869,24.7800697 15.7404564,25.7045562 C16.200503,25.0883485 16.7487063,24.5431777 17.3674564,24.0865562 L18.5674564,25.6865562 C16.6234564,27.1465562 16.0994564,29.0495562 17.1674564,30.7775562 C18.6235639,32.9284881 21.4858079,33.6033897 23.7494564,32.3295562 L24.3944564,32.0075562 L24.9034564,32.5175562 C26.171636,33.714069 27.9691582,34.1681799 29.6534564,33.7175562 C28.8448998,32.69939 28.3550765,31.4650908 28.2454564,30.1695562 C26.6728868,30.1203876 25.2215967,29.3123761 24.3514564,28.0015562 C23.4729104,26.3728947 23.4542029,24.4157136 24.3014564,22.7705562 L26.0914564,23.6645562 C25.5511052,24.689966 25.5365942,25.9126107 26.0524564,26.9505562 C26.5724564,27.7915562 27.6304564,28.2175562 29.1964564,28.2175562 L30.1964564,28.2175562 L30.1964564,29.2175562 C30.1086505,30.6272278 30.6594482,32.0016517 31.6964564,32.9605562 C32.6309461,33.7249788 33.8085014,34.1290871 35.0154564,34.0995562 C37.0714564,34.0995562 39.1964564,33.0175562 39.1964564,31.2175562 L41.1964564,31.2175562 C41.1930689,32.6946944 40.4398005,34.0690325 39.1964564,34.8665562 L39.1964564,35.1665562 C39.2239594,36.6673492 39.7518834,38.1159725 40.6964564,39.2825562 C41.6042802,40.4001308 42.129996,41.7792586 42.1964564,43.2175562 L40.1964564,43.2175562 C40.1140557,42.1763177 39.7037411,41.1879917 39.0244564,40.3945562 C38.0048069,39.0574085 37.3811328,37.4608028 37.2244564,35.7865562 C36.5050395,35.993785 35.7601248,36.0991435 35.0114564,36.0995562 C33.7600042,36.1092747 32.5267692,35.7995031 31.4284564,35.1995562 C30.4558318,35.6461029 29.3986874,35.8786747 28.3284564,35.8815562 C26.7617736,35.8979373 25.2373867,35.3734437 24.0124564,34.3965562 C20.9183539,35.7329267 17.3114471,34.649082 15.4664564,31.8285562 C14.7561747,30.6882038 14.4919456,29.3257503 14.7244564,28.0025562 C13.5111661,26.3388074 13.1439191,24.2041148 13.7314564,22.2305562 C14.2295886,20.5620422 15.4543392,19.2075775 17.0644564,18.5445562 C17.1537324,17.7864782 17.3833074,17.0516346 17.7414564,16.3775562 C18.8999584,14.1204142 21.3475666,12.8300534 23.8644564,13.1495562 Z M41.1444564,20.9015562 C41.371123,21.5695156 41.5056948,22.2652516 41.5444564,22.9695562 C42.5292762,22.9232501 43.4995928,23.2205311 44.2894564,23.8105562 C45.5763027,24.9027441 46.2812436,26.5318342 46.1964564,28.2175562 L44.1964564,28.2175562 C44.2744701,27.1563467 43.861274,26.1180118 43.0754564,25.4005562 C42.5688224,25.0363154 41.9383,24.8881264 41.3224564,24.9885562 C41.2133736,25.3738381 41.0617749,25.7457915 40.8704564,26.0975562 C39.8968977,27.7078295 38.286975,28.8305243 36.4394564,29.1875562 L35.9534564,27.2475562 C37.2592109,27.0229789 38.4082084,26.2545573 39.1144564,25.1335562 C39.6534542,24.0030918 39.700512,22.6999531 39.2444564,21.5335562 Z M25.8804564,17.2695562 C27.6290231,16.6985659 29.5138898,16.6985659 31.2624564,17.2695562 C33.0667069,17.7864758 34.5123319,19.1394469 35.1474564,20.9055562 L33.2474564,21.5375562 C32.4554564,19.1605562 29.0384564,18.3315562 26.5124564,19.1695562 Z" id="brain" transform="translate(32.1967, 27.1822) scale(-1, 1) translate(-32.1967, -27.1822)"></path>
            </g>
        </g>
    </g>
</svg>